<?xml version="1.0" encoding="UTF-8" standalone="no"?>
<svg
   width="64"
   height="64"
   viewBox="0 0 32 32"
   version="1.1"
   id="svg51"
   sodipodi:docname="favicon.svg"
   inkscape:version="1.1.2 (0a00cf5339, 2022-02-04)"
   xmlns:inkscape="http://www.inkscape.org/namespaces/inkscape"
   xmlns:sodipodi="http://sodipodi.sourceforge.net/DTD/sodipodi-0.dtd"
   xmlns:xlink="http://www.w3.org/1999/xlink"
   xmlns="http://www.w3.org/2000/svg"
   xmlns:svg="http://www.w3.org/2000/svg">
  <sodipodi:namedview
     id="namedview53"
     pagecolor="#ffffff"
     bordercolor="#666666"
     borderopacity="1.0"
     inkscape:pageshadow="2"
     inkscape:pageopacity="0.0"
     inkscape:pagecheckerboard="0"
     showgrid="false"
     objecttolerance="1"
     gridtolerance="10"
     inkscape:zoom="12.21875"
     inkscape:cx="31.959079"
     inkscape:cy="38.506394"
     inkscape:window-width="1850"
     inkscape:window-height="1016"
     inkscape:window-x="0"
     inkscape:window-y="0"
     inkscape:window-maximized="1"
     inkscape:current-layer="svg51" />
  <defs
     id="defs13">
    <clipPath
       id="A">
      <path
         d="M0 216h216V0H0v216z"
         id="path2" />
    </clipPath>
    <clipPath
       id="B">
      <path
         d="M121.724 55.66c.343 1.114.4 2.832-3.038 2.054 0 0-9.395-1.342-9.843-12.303l-.214-21h-2.258l-.213 21c-.448 10.96-9.842 12.303-9.842 12.303-3.428.778-3.383-.938-3.04-2.052-3.37 5.738-12.394 4.996-12.394 4.996-3.133-1.117-.224-3.13-.224-3.13 4.92-1.788 5.37-7.158 5.37-7.158V35.2l.52-11.728c1.117-5.224 3.874-8.312 6.578-10.13l28.803.033c3.484 2.365 7.047 6.846 7.047 15.307V50.37s.447 5.37 5.37 7.158c0 0 2.906 2.014-.225 3.13 0 0-.382.03-1.017.032-2.455 0-8.7-.47-11.378-5.03M94.53 34.04v16.552c0 1.617-.285 2.977-.773 4.12 3.24-2.526 3.457-8.855 3.457-8.855v-20.66c-3.225 2.282-2.684 8.846-2.684 8.846M117.8 45.86s.217 6.33 3.456 8.855c-.487-1.143-.772-2.503-.772-4.12V34.042s.54-6.1-2.684-8.612v20.43z"
         id="path5" />
    </clipPath>
    <clipPath
       id="C">
      <path
         d="M0 216h216V0H0v216z"
         id="path8" />
    </clipPath>
    <path
       id="D"
       d="M158.542 54.996c0-9.73-22.538-17.617-50.34-17.617s-50.34 7.887-50.34 17.617 22.537 17.62 50.34 17.62 50.34-7.9 50.34-17.62" />
    <path
       id="E"
       d="M75.282 93.676c0-.555-.65-1.006-1.454-1.006s-1.455.45-1.455 1.006.65 1.008 1.455 1.008 1.454-.45 1.454-1.008" />
  </defs>
  <use
     xlink:href="#D"
     fill="#a0dcf2"
     id="use15"
     x="0"
     y="0"
     width="100%"
     height="100%"
     transform="matrix(0.178423,0,0,-0.177923,-3.18057,36.6508)" />
  <use
     xlink:href="#D"
     fill="#82bde7"
     id="use19"
     x="0"
     y="0"
     width="100%"
     height="100%"
     transform="matrix(0.178423,0,0,-0.177923,-3.18057,36.6508)" />
  <path
     d="m 5.8654761,17.648624 -0.2592486,0.900824 c 0,0 -0.067444,0.325599 0.2401573,0.383246 0.3211614,-0.0062 0.2949333,-0.306028 0.272452,-0.403174 L 5.8654761,17.648802 Z"
     fill="#a0dcf2"
     id="path23"
     style="stroke-width:0.178173" />
  <path
     style="stroke-width:0.178173"
     d="m 31.976255,13.871674 0.02373,-0.117073 c -2.634951,-0.525407 -5.338773,-0.530745 -6.976339,-0.462956 0.268705,-0.96541 0.349709,-2.076361 0.349709,-3.3152392 0,-1.776739 -0.669443,-3.1981659 -1.756218,-4.2797598 0.190021,-0.6111655 0.443738,-1.9688959 -0.25336,-3.7066699 0,0 -1.231119,-0.3892955 -4.010236,1.4666193 C 18.26409,3.1850849 17.104698,3.050931 15.943521,3.050931 c -1.277509,0 -2.568399,0.1622658 -3.772398,0.4916012 C 9.301011,1.5898273 8.0342077,1.9897982 8.0342077,1.9897982 7.2070386,4.053705 7.718399,5.5785051 7.873627,5.957837 6.9015785,7.0040242 6.3081436,8.3391584 6.3081436,9.9762279 c 0,1.2360311 0.141311,2.3446691 0.4860242,3.3083001 -1.6498775,-0.05978 -4.2553885,-0.03683 -6.79791628,0.469717 l 0.02355183,0.117073 C 2.5757128,13.361569 5.197282,13.343777 6.835562,13.405694 c 0.07583,0.199274 0.1605807,0.39143 0.2551448,0.580029 -1.6215082,0.05213 -4.3899195,0.257988 -7.04324788,1.004553 l 0.03247298,0.11476 c 2.6742039,-0.75208 5.4668807,-0.952955 7.0726877,-1.001706 0.9688369,1.800581 2.8788554,2.963841 6.2769214,3.32716 -0.482456,0.323108 -0.97419,0.872534 -1.174024,1.80236 -0.657131,0.313144 -2.7375437,1.078569 -3.9859694,-1.0622 0,0 -0.6987045,-1.273929 -2.0361633,-1.373566 0,0 -1.2971352,-0.01779 -0.089747,0.805991 0,0 0.8683847,0.407978 1.4671723,1.939361 0,0 0.7814927,2.614578 4.5519274,1.775671 v 2.700872 c 0,0 -0.07976,0.955446 -0.958131,1.273572 0,0 -0.518854,0.358337 0.03997,0.556899 0,0 2.434582,0.199274 2.434582,-1.790795 v -2.944981 c 0,0 -0.09635,-1.168065 0.478708,-1.573907 v 4.840751 c 0,0 -0.03961,1.154187 -0.638397,1.592055 0,0 -0.399132,0.71614 0.478887,0.5174 0,0 1.676106,-0.238772 1.756039,-2.188986 l 0.03818,-4.895196 h 0.402701 l 0.03836,4.895196 c 0.07975,1.950036 1.756039,2.188986 1.756039,2.188986 0.877841,0.19874 0.478709,-0.5174 0.478709,-0.5174 -0.598609,-0.43769 -0.638398,-1.592055 -0.638398,-1.592055 V 19.58496 c 0.575058,0.444807 0.478888,1.532272 0.478888,1.532272 v 2.944982 c 0,1.989891 2.434403,1.790795 2.434403,1.790795 0.558464,-0.19874 0.04014,-0.556899 0.04014,-0.556899 -0.878198,-0.320261 -0.958131,-1.273573 -0.958131,-1.273573 v -3.860395 c 0,-1.505229 -0.635722,-2.30268 -1.257347,-2.723468 3.621987,-0.358337 5.362681,-1.525156 6.164158,-3.338191 1.587251,0.04341 4.443803,0.236282 7.176173,1.005265 l 0.03247,-0.11476 c -2.716847,-0.76418 -5.554308,-0.961852 -7.157796,-1.008468 0.07601,-0.183261 0.142203,-0.373638 0.201083,-0.569353 1.624541,-0.07117 4.340675,-0.0685 6.985974,0.459041"
     id="path25" />
  <path
     d="m 21.830409,9.8911808 c 0.780601,0.7051092 1.237185,1.5568262 1.237185,2.4740192 0,4.283496 -3.202336,4.39968 -7.152086,4.39968 -3.94975,0 -7.1524424,-0.591238 -7.1524424,-4.397901 0,-0.911321 0.4503397,-1.757523 1.2213055,-2.4597851 1.2857159,-1.1703775 3.4621199,-0.5506717 5.9307809,-0.5506717 2.459025,0 4.627222,-0.6259331 5.914722,0.5364378"
     fill="#f5cdb5"
     id="path27"
     style="stroke-width:0.178173" />
  <path
     d="m 13.53713,12.585291 c 0,1.179629 -0.666232,2.136143 -1.488048,2.136143 -0.821816,0 -1.488405,-0.956336 -1.488405,-2.136143 0,-1.179808 0.666589,-2.135788 1.488405,-2.135788 0.821816,0 1.488048,0.95598 1.488048,2.135788"
     fill="#ffffff"
     id="path29"
     style="stroke-width:0.178173" />
  <path
     d="m 13.059491,12.612157 c 0,0.78642 -0.446057,1.42374 -0.992031,1.42374 -0.545975,0 -0.992032,-0.63732 -0.992032,-1.42374 0,-0.786419 0.443916,-1.424451 0.992032,-1.424451 0.548115,0 0.992031,0.637676 0.992031,1.424451"
     fill="#b1645a"
     id="path31"
     style="stroke-width:0.178173" />
  <path
     d="m 21.520845,12.585291 c 0,1.179629 -0.666231,2.136143 -1.488404,2.136143 -0.822173,0 -1.488048,-0.956336 -1.488048,-2.136143 0,-1.179808 0.66641,-2.135788 1.488048,-2.135788 0.821638,0 1.488404,0.95598 1.488404,2.135788"
     fill="#ffffff"
     id="path33"
     style="stroke-width:0.178173" />
  <path
     d="m 21.043207,12.612157 c 0,0.78642 -0.446057,1.42374 -0.992032,1.42374 -0.545974,0 -0.992032,-0.63732 -0.992032,-1.42374 0,-0.786419 0.446058,-1.424451 0.992032,-1.424451 0.545975,0 0.992032,0.637676 0.992032,1.424451 m -4.734633,1.868192 c 0,0.204967 -0.166647,0.371147 -0.37219,0.371147 -0.205543,0 -0.37219,-0.16618 -0.37219,-0.371147 0,-0.204968 0.166468,-0.371148 0.37219,-0.371148 0.205722,0 0.37219,0.16618 0.37219,0.371148 m -1.239147,0.938544 a 0.11969092,0.1193555 0 1 1 0.225705,-0.07953 c 0.09563,0.269553 0.352028,0.450679 0.638219,0.450679 0.28619,0 0.542406,-0.181126 0.638397,-0.450679 a 0.11960681,0.11927163 0 1 1 0.225527,0.07953 0.91887845,0.91630345 0 0 1 -1.727848,0"
     fill="#b1645a"
     id="path35"
     style="stroke-width:0.178173" />
  <path
     d="m 6.8182549,17.117523 c 0,0.0991 -0.1163318,0.178991 -0.2596054,0.178991 -0.1432737,0 -0.2594271,-0.08006 -0.2594271,-0.178991 0,-0.09892 0.115975,-0.179346 0.2594271,-0.179346 0.143452,0 0.2596054,0.08007 0.2596054,0.179346 m 0.7186879,0.397658 c 0,0.0991 -0.1163318,0.179347 -0.2596055,0.179347 -0.1432737,0 -0.259427,-0.08007 -0.259427,-0.179347 0,-0.09928 0.1159749,-0.17899 0.259427,-0.17899 0.1434521,0 0.2596055,0.08007 0.2596055,0.17899 m 0.4392774,0.515977 c 0,0.09875 -0.115975,0.178991 -0.2596055,0.178991 -0.1436305,0 -0.2592486,-0.08007 -0.2592486,-0.178991 0,-0.09893 0.115975,-0.179346 0.2592486,-0.179346 0.1432737,0 0.2596055,0.08007 0.2596055,0.179346 m 0.3987754,0.597288 c 0,0.0991 -0.115975,0.179346 -0.2592486,0.179346 -0.1432737,0 -0.2596055,-0.08006 -0.2596055,-0.179346 0,-0.09928 0.115975,-0.179347 0.2596055,-0.179347 0.1436305,0 0.2592486,0.08007 0.2592486,0.179347 m 0.4392774,0.559212 c 0,0.09875 -0.1159749,0.17899 -0.259427,0.17899 -0.1434521,0 -0.2596055,-0.08007 -0.2596055,-0.17899 0,-0.09893 0.1163318,-0.179347 0.2596055,-0.179347 0.1432736,0 0.259427,0.08007 0.259427,0.179347 m 0.598966,0.477367 c 0,0.0991 -0.1159749,0.179346 -0.2596054,0.179346 -0.1436305,0 -0.2592487,-0.08006 -0.2592487,-0.179346 0,-0.09928 0.115975,-0.178991 0.2592487,-0.178991 0.1432736,0 0.2596054,0.08007 0.2596054,0.178991"
     id="path37"
     style="fill:#c5e6da;stroke-width:0.178173" />
  <use
     xlink:href="#E"
     id="use39"
     x="0"
     y="0"
     width="100%"
     height="100%"
     transform="matrix(0.178423,0,0,-0.177923,-3.18057,36.6508)"
     style="fill:#c5e6da" />
  <use
     xlink:href="#E"
     x="4.6760001"
     id="use41"
     y="0"
     width="100%"
     height="100%"
     transform="matrix(0.178423,0,0,-0.177923,-3.18057,36.6508)"
     style="fill:#c5e6da" />
  <path
     d="m 11.932572,19.845083 c 0,0.0991 -0.115975,0.179346 -0.259427,0.179346 -0.143452,0 -0.259606,-0.08007 -0.259606,-0.179346 0,-0.09928 0.115975,-0.179346 0.259606,-0.179346 0.14363,0 0.259427,0.08007 0.259427,0.179346"
     id="path43"
     style="fill:#c5e6da;stroke-width:0.178173" />
  <g
     id="g1581"
     transform="translate(26.849584,5.5740089)">
    <polygon
       id="XMLID_1086_"
       style="fill:#9daeb1;fill-opacity:1"
       points="130,460 230,294.039 230,264.039 130,244.039 30,264.039 "
       transform="matrix(0.01086956,0,0,0.01086956,-3.523018,6.297954)" />
    <polygon
       id="XMLID_1087_"
       style="fill:#425060;fill-opacity:1"
       points="430,264.039 330,244.039 230,264.039 230,294.039 330,460 "
       transform="matrix(0.01086956,0,0,0.01086956,-3.523018,6.297954)" />
    <polygon
       id="XMLID_1088_"
       style="fill:#525f70;fill-opacity:1"
       points="230,264.039 130,460 330,460 "
       transform="matrix(0.01086956,0,0,0.01086956,-3.523018,6.297954)" />
    <polygon
       id="XMLID_1089_"
       style="fill:#9daeb1;fill-opacity:1"
       points="230,264.039 430,264.039 230,0 210,132.02 "
       transform="matrix(0.01086956,0,0,0.01086956,-3.523018,6.297954)" />
    <polygon
       id="XMLID_1090_"
       style="fill:#b4c1c7;fill-opacity:1"
       points="30,264.039 230,264.039 230,0 "
       transform="matrix(0.01086956,0,0,0.01086956,-3.523018,6.297954)" />
    <rect
       id="XMLID_1091_"
       x="-1.675191"
       y="7.8635955"
       style="fill:#525f70;fill-opacity:1;stroke-width:0.0108695"
       width="0.32608697"
       height="0.32608697" />
    <rect
       id="XMLID_1092_"
       x="-2.2186699"
       y="8.515769"
       style="fill:#525f70;fill-opacity:1;stroke-width:0.0108695"
       width="0.32608697"
       height="0.32608697" />
  </g>
  <g
     id="g1453"
     transform="translate(-0.05195013,0.02046036)">
    <path
       style="stroke-width:0.178173"
       d="m 19.742276,19.157654 c 0.657131,0.313144 2.737544,1.078569 3.98597,-1.0622 0,0 0.698704,-1.273929 2.036163,-1.373566 0,0 1.297135,-0.01779 0.08975,0.805991 0,0 -0.868385,0.407978 -1.467172,1.939361 0,0 -0.781493,2.614578 -4.551928,1.775671"
       id="path1334" />
    <path
       d="m 25.305792,17.03594 c 0,0.0991 0.116332,0.178991 0.259605,0.178991 0.143274,0 0.259428,-0.08006 0.259428,-0.178991 0,-0.09892 -0.115975,-0.179346 -0.259428,-0.179346 -0.143451,0 -0.259605,0.08007 -0.259605,0.179346 m -0.718688,0.397658 c 0,0.0991 0.116332,0.179347 0.259606,0.179347 0.143273,0 0.259427,-0.08007 0.259427,-0.179347 0,-0.09928 -0.115975,-0.17899 -0.259427,-0.17899 -0.143452,0 -0.259606,0.08007 -0.259606,0.17899 m -0.439277,0.515977 c 0,0.09875 0.115975,0.178991 0.259605,0.178991 0.143631,0 0.259249,-0.08007 0.259249,-0.178991 0,-0.09893 -0.115975,-0.179346 -0.259249,-0.179346 -0.143273,0 -0.259605,0.08007 -0.259605,0.179346 m -0.398776,0.597288 c 0,0.0991 0.115975,0.179346 0.259249,0.179346 0.143274,0 0.259606,-0.08006 0.259606,-0.179346 0,-0.09928 -0.115976,-0.179347 -0.259606,-0.179347 -0.143631,0 -0.259249,0.08007 -0.259249,0.179347 m -0.439277,0.559212 c 0,0.09875 0.115975,0.17899 0.259427,0.17899 0.143452,0 0.259605,-0.08007 0.259605,-0.17899 0,-0.09893 -0.116331,-0.179347 -0.259605,-0.179347 -0.143274,0 -0.259427,0.08007 -0.259427,0.179347 m -0.598966,0.477367 c 0,0.0991 0.115975,0.179346 0.259605,0.179346 0.143631,0 0.259249,-0.08006 0.259249,-0.179346 0,-0.09928 -0.115975,-0.178991 -0.259249,-0.178991 -0.143273,0 -0.259605,0.08007 -0.259605,0.178991"
       id="path37-6"
       style="fill:#c5e6da;stroke-width:0.178173" />
    <use
       xlink:href="#E"
       id="use39-7"
       x="0"
       y="0"
       width="100%"
       height="100%"
       transform="matrix(-0.178423,0,0,-0.177923,35.304617,36.569217)"
       style="fill:#c5e6da" />
    <use
       xlink:href="#E"
       x="4.6760001"
       id="use41-5"
       y="0"
       width="100%"
       height="100%"
       transform="matrix(-0.178423,0,0,-0.177923,35.304617,36.569217)"
       style="fill:#c5e6da" />
    <path
       d="m 20.191475,19.7635 c 0,0.0991 0.115975,0.179346 0.259427,0.179346 0.143452,0 0.259606,-0.08007 0.259606,-0.179346 0,-0.09928 -0.115975,-0.179346 -0.259606,-0.179346 -0.14363,0 -0.259427,0.08007 -0.259427,0.179346"
       id="path43-3"
       style="fill:#c5e6da;stroke-width:0.178173" />
  </g>
</svg>
